<?xml version="1.0" encoding="UTF-8" standalone="no"?>
<svg
   xmlns:dc="http://purl.org/dc/elements/1.1/"
   xmlns:cc="http://creativecommons.org/ns#"
   xmlns:rdf="http://www.w3.org/1999/02/22-rdf-syntax-ns#"
   xmlns:svg="http://www.w3.org/2000/svg"
   xmlns="http://www.w3.org/2000/svg"
   xmlns:sodipodi="http://sodipodi.sourceforge.net/DTD/sodipodi-0.dtd"
   xmlns:inkscape="http://www.inkscape.org/namespaces/inkscape"
   width="25"
   height="25"
   id="svg3345"
   version="1.1"
   inkscape:version="0.91 r13725"
   sodipodi:docname="activity-contacted.svg">
  <metadata
     id="metadata3352">
    <rdf:RDF>
      <cc:Work
         rdf:about="">
        <dc:format>image/svg+xml</dc:format>
        <dc:type
           rdf:resource="http://purl.org/dc/dcmitype/StillImage" />
        <dc:title></dc:title>
      </cc:Work>
    </rdf:RDF>
  </metadata>
  <defs
     id="defs3350" />
  <sodipodi:namedview
     pagecolor="#ffffff"
     bordercolor="#666666"
     borderopacity="1"
     objecttolerance="10"
     gridtolerance="10"
     guidetolerance="10"
     inkscape:pageopacity="0"
     inkscape:pageshadow="2"
     inkscape:window-width="1920"
     inkscape:window-height="1137"
     id="namedview3348"
     showgrid="false"
     fit-margin-top="1"
     fit-margin-right="1"
     fit-margin-bottom="1"
     fit-margin-left="1"
     inkscape:zoom="1.5733333"
     inkscape:cx="-110.28391"
     inkscape:cy="-22.967036"
     inkscape:window-x="1912"
     inkscape:window-y="-8"
     inkscape:window-maximized="1"
     inkscape:current-layer="svg3345" />
  <path
     id="icon-contacted"
     d="m 2.5011305,18.294625 q 0,0.38353 0.14204,1.0014 0.14206,0.61788 0.29831,0.97298 0.29829,0.71024 1.7329,1.5057 1.3352,0.72443 2.6421,0.72443 0.3835,0 0.74572,-0.04971 0.36222,-0.04972 0.81676,-0.17756 0.45454,-0.12795 0.67472,-0.20595 0.22017,-0.07811 0.7883405,-0.2912 0.5682,-0.21307 0.69603,-0.25568 1.392,-0.49715 2.4858,-1.179 1.818199,-1.1221 3.757099,-3.061 1.9389,-1.9389 3.0611,-3.7571 0.68181,-1.0937 1.179,-2.4858 0.04265,-0.12795 0.25568,-0.69603 0.21307,-0.56818 0.29119,-0.78833 0.07811,-0.22017 0.20597,-0.67472 0.128,-0.4529 0.177,-0.8151 0.05,-0.3622 0.05,-0.7457 0,-1.3069 -0.724,-2.6421 -0.796,-1.4346 -1.506,-1.7329 -0.355,-0.15629 -0.973,-0.2983 -0.617999,-0.14209 -1.001999,-0.14209 -0.19886,0 -0.298291,0.04252 -0.25568,0.08517 -0.752839,1.0795 -0.15624,0.26989 -0.426131,0.76704 -0.26989,0.49714 -0.49717,0.90197 -0.22726,0.40484 -0.440339,0.75994 -0.04265,0.05678 -0.248581,0.35513 -0.20597,0.29829 -0.3054,0.50426 -0.09943,0.20597 -0.09943,0.40483 0,0.28408 0.40483,0.71021 0.404831,0.42614 0.88067,0.78127 0.47586,0.35511 0.88068,0.75282 0.40481,0.39774 0.40481,0.65342 0,0.12795 -0.07104,0.31959 -0.07104,0.19176 -0.12076,0.2912 -0.04971,0.09956 -0.19885,0.34089 -0.14916,0.24147 -0.16337,0.2699 -1.0795,1.946 -2.4716,3.338 -1.392,1.3921 -3.3381,2.4716 -0.02839,0.01347 -0.26989,0.16337 -0.24147,0.14918 -0.3409,0.19887 -0.09943,0.04972 -0.29119,0.12076 -0.19176,0.07091 -0.31961,0.07091 -0.2556795,0 -0.6534095,-0.40483 -0.399,-0.405 -0.7541,-0.88 -0.3551,-0.476 -0.7812,-0.881 -0.4261,-0.405 -0.7102,-0.405 -0.19885,0 -0.40482,0.09956 -0.206,0.099 -0.5043,0.305 -0.2983,0.206 -0.3551,0.249 -0.3551,0.213 -0.76,0.44 -0.4048,0.227 -0.902,0.497 -0.4971,0.27 -0.767,0.426 -0.9943,0.497 -1.0795,0.753 -0.042651,0.1 -0.042651,0.298 z"
     horiz-adv-x="1408"
     unicode=""
     inkscape:connector-curvature="0"
     style="fill:#444444" />
</svg>
