<?xml version="1.0" encoding="UTF-8" standalone="no"?>
<!-- Created with Inkscape (http://www.inkscape.org/) -->

<svg
   xmlns:dc="http://purl.org/dc/elements/1.1/"
   xmlns:cc="http://creativecommons.org/ns#"
   xmlns:rdf="http://www.w3.org/1999/02/22-rdf-syntax-ns#"
   xmlns:svg="http://www.w3.org/2000/svg"
   xmlns="http://www.w3.org/2000/svg"
   xmlns:sodipodi="http://sodipodi.sourceforge.net/DTD/sodipodi-0.dtd"
   xmlns:inkscape="http://www.inkscape.org/namespaces/inkscape"
   width="50"
   height="50"
   id="svg11581"
   version="1.1"
   inkscape:version="0.91 r13725"
   sodipodi:docname="risk-fa.svg">
  <defs
     id="defs11583" />
  <sodipodi:namedview
     id="base"
     pagecolor="#ffffff"
     bordercolor="#666666"
     borderopacity="1.0"
     inkscape:pageopacity="0.0"
     inkscape:pageshadow="2"
     inkscape:zoom="1.979899"
     inkscape:cx="-63.27967"
     inkscape:cy="-15.471025"
     inkscape:document-units="px"
     inkscape:current-layer="svg11581"
     showgrid="false"
     fit-margin-top="1"
     fit-margin-right="1"
     fit-margin-bottom="1"
     fit-margin-left="1"
     inkscape:window-width="1920"
     inkscape:window-height="1137"
     inkscape:window-x="1912"
     inkscape:window-y="-8"
     inkscape:window-maximized="1"
     units="px" />
  <metadata
     id="metadata11586">
    <rdf:RDF>
      <cc:Work
         rdf:about="">
        <dc:format>image/svg+xml</dc:format>
        <dc:type
           rdf:resource="http://purl.org/dc/dcmitype/StillImage" />
        <dc:title></dc:title>
      </cc:Work>
    </rdf:RDF>
  </metadata>
  <path
     style="fill:#212121"
     unicode=""
     horiz-adv-x="1920"
     d="m 19.559149,24.999991 q -2.401659,0.07401 -3.928642,1.89753 l -1.986565,0 q -1.215626,0 -2.045773,-0.600191 -0.830401,-0.600484 -0.830401,-1.756924 0,-5.233299 1.838363,-5.233299 0.08889,0 0.644991,0.311375 0.555977,0.311383 1.445289,0.630078 0.889588,0.318696 1.764241,0.318696 0.993283,0 1.971928,-0.340969 -0.07403,0.548635 -0.07403,0.978368 0,2.060685 1.200692,3.795336 z m 15.877688,9.44371 q 0,1.778922 -1.082064,2.809389 -1.082316,1.030218 -2.876173,1.030218 l -12.957261,0 q -1.793835,0 -2.875898,-1.030218 -1.082317,-1.030467 -1.082317,-2.809389 0,-0.785895 0.05176,-1.534324 0.05176,-0.748687 0.207686,-1.616017 0.155497,-0.867339 0.392798,-1.608705 0.237279,-0.74109 0.637396,-1.445265 0.400414,-0.704176 0.919181,-1.200969 0.518789,-0.496519 1.267474,-0.793216 0.748705,-0.29644 1.653229,-0.29644 0.148285,0 0.637395,0.318695 0.489174,0.318696 1.082318,0.711772 0.592889,0.392819 1.586171,0.711523 0.993283,0.318695 2.001521,0.318695 1.007941,0 2.001222,-0.318695 0.993283,-0.318704 1.586448,-0.711523 0.592868,-0.393076 1.082041,-0.711772 0.489471,-0.318695 0.637673,-0.318695 0.904268,0 1.652953,0.29644 0.748705,0.296697 1.267472,0.793216 0.519044,0.496793 0.919182,1.200969 0.400414,0.704175 0.637672,1.445265 0.236982,0.741366 0.392799,1.608705 0.155498,0.86733 0.207473,1.616017 0.05176,0.748429 0.05176,1.534324 z M 20.255987,15.51177 q 0,1.571515 -1.111911,2.683426 -1.111911,1.111911 -2.683424,1.111911 -1.571511,0 -2.683147,-1.111911 -1.111932,-1.111911 -1.111932,-2.683426 0,-1.571238 1.111932,-2.683149 1.111636,-1.111929 2.683147,-1.111929 1.571513,0 2.683424,1.111929 1.111911,1.111911 1.111911,2.683149 z m 10.437016,5.692885 q 0,2.357382 -1.667888,4.025 -1.667888,1.667866 -4.024997,1.667866 -2.357407,0 -4.025273,-1.667866 -1.667612,-1.667618 -1.667612,-4.025 0,-2.357134 1.667612,-4.025018 1.667866,-1.667867 4.025273,-1.667867 2.357109,0 4.024997,1.667867 1.667888,1.667884 1.667888,4.025018 z m 8.539189,3.335751 q 0,1.15644 -0.830147,1.756924 -0.830125,0.600191 -2.046027,0.600191 l -1.986585,0 q -1.526985,-1.823416 -3.928644,-1.89753 1.200968,-1.734651 1.200968,-3.795336 0,-0.429733 -0.07404,-0.978368 0.978348,0.340969 1.971631,0.340969 0.874674,0 1.764262,-0.318696 0.889588,-0.318695 1.445544,-0.630078 0.555955,-0.311375 0.644736,-0.311375 1.838342,0 1.838342,5.233299 z m -1.89755,-9.028636 q 0,1.571515 -1.111911,2.683426 -1.111911,1.111911 -2.683424,1.111911 -1.571512,0 -2.683445,-1.111911 -1.111911,-1.111911 -1.111911,-2.683426 0,-1.571238 1.111911,-2.683149 1.111933,-1.111929 2.683445,-1.111929 1.571513,0 2.683424,1.111929 1.111911,1.111911 1.111911,2.683149 z"
     id="path8876"
     inkscape:connector-curvature="0" />
</svg>

