<?xml version="1.0" encoding="UTF-8" standalone="no"?>
<!-- Created with Inkscape (http://www.inkscape.org/) -->

<svg
   xmlns:dc="http://purl.org/dc/elements/1.1/"
   xmlns:cc="http://creativecommons.org/ns#"
   xmlns:rdf="http://www.w3.org/1999/02/22-rdf-syntax-ns#"
   xmlns:svg="http://www.w3.org/2000/svg"
   xmlns="http://www.w3.org/2000/svg"
   xmlns:sodipodi="http://sodipodi.sourceforge.net/DTD/sodipodi-0.dtd"
   xmlns:inkscape="http://www.inkscape.org/namespaces/inkscape"
   version="1.1"
   width="50"
   height="50"
   id="svg11581"
   inkscape:version="0.91 r13725"
   sodipodi:docname="risk-eo.svg">
  <sodipodi:namedview
     pagecolor="#ffffff"
     bordercolor="#666666"
     borderopacity="1"
     objecttolerance="10"
     gridtolerance="10"
     guidetolerance="10"
     inkscape:pageopacity="0"
     inkscape:pageshadow="2"
     inkscape:window-width="1920"
     inkscape:window-height="1137"
     id="namedview6"
     showgrid="false"
     inkscape:zoom="7.867503"
     inkscape:cx="-5.3069525"
     inkscape:cy="14.998405"
     inkscape:window-x="1912"
     inkscape:window-y="-8"
     inkscape:window-maximized="1"
     inkscape:current-layer="svg11581" />
  <defs
     id="defs11583" />
  <metadata
     id="metadata11586">
    <rdf:RDF>
      <cc:Work
         rdf:about="">
        <dc:format>image/svg+xml</dc:format>
        <dc:type
           rdf:resource="http://purl.org/dc/dcmitype/StillImage" />
        <dc:title></dc:title>
      </cc:Work>
    </rdf:RDF>
  </metadata>
  <path
     d="m 34.087056,12.734503 q 0,-0.198675 0.127573,-0.326485 0.127974,-0.127573 0.326485,-0.127573 l 4.088413,0 q 0.369127,0 0.638958,0.269567 0.269803,0.269831 0.269803,0.63894 l 0,4.088403 q 0,0.198866 -0.127973,0.326503 -0.127574,0.127982 -0.326512,0.127982 l -0.908507,0 q -0.198875,0 -0.326485,-0.127982 -0.127973,-0.127573 -0.127973,-0.326503 l 0,-1.902262 -3.605687,3.619989 q 1.07876,1.34859 1.52613,3.037993 0.447107,1.689377 0.134688,3.506409 -0.45414,2.555259 -2.335095,4.400868 -1.880964,1.845618 -4.450516,2.228774 -3.165894,0.482717 -5.806139,-1.277634 -1.661063,1.107364 -3.634308,1.32025 l 0,1.873958 1.362891,0 q 0.198666,0 0.326485,0.127565 0.127573,0.127973 0.127573,0.326502 l 0,0.908762 q 0,0.198665 -0.127573,0.326511 -0.127973,0.127565 -0.326485,0.127565 l -1.362891,0 0,1.362892 q 0,0.198675 -0.127973,0.326484 -0.127574,0.127574 -0.326494,0.127574 l -0.908516,0 q -0.198666,0 -0.326476,-0.127574 -0.127573,-0.127982 -0.127573,-0.326484 l 0,-1.362892 -1.362901,0 q -0.198866,0 -0.326503,-0.127565 -0.127973,-0.127982 -0.127973,-0.326511 l 0,-0.908762 q 0,-0.198665 0.127973,-0.326502 0.127573,-0.127565 0.326503,-0.127565 l 1.362901,0 0,-1.873958 q -2.200461,-0.2412 -3.967827,-1.554471 -1.767602,-1.313234 -2.65481,-3.371484 -0.887199,-2.058504 -0.560696,-4.358234 0.354816,-2.654828 2.264384,-4.578435 1.909286,-1.923334 4.549831,-2.335067 3.179905,-0.482744 5.820431,1.277615 2.072542,-1.37693 4.542807,-1.37693 2.853158,0 5.096234,1.788691 l 3.619989,-3.605968 -1.902281,0 q -0.198665,0 -0.326475,-0.127574 -0.127574,-0.127982 -0.127574,-0.326485 l 0,-0.908779 z M 23.184419,28.535026 q 1.817014,-1.85992 1.817014,-4.44351 0,-2.5836 -1.817014,-4.443493 -1.817295,1.859893 -1.817295,4.443493 0,2.58359 1.817295,4.44351 z m -10.902636,-4.44351 q 0,2.626224 1.86668,4.493158 1.866917,1.866653 4.49315,1.866653 1.660782,0 3.094656,-0.809201 -2.186149,-2.370686 -2.186149,-5.55061 0,-3.179906 2.186149,-5.550611 -1.433874,-0.809201 -3.094656,-0.809201 -2.626233,0 -4.49315,1.866662 -1.86668,1.866935 -1.86668,4.49315 z m 15.445443,6.359811 q 2.626224,0 4.492886,-1.866653 1.866944,-1.866934 1.866944,-4.493158 0,-2.626215 -1.866944,-4.49315 -1.866662,-1.866662 -4.492886,-1.866662 -1.661063,0 -3.09492,0.809201 2.186141,2.370705 2.186141,5.550611 0,3.179924 -2.186141,5.55061 1.433857,0.809201 3.09492,0.809201 z"
     id="path11046"
     style="fill:#212121"
     inkscape:connector-curvature="0" />
</svg>

