<?xml version="1.0" encoding="UTF-8" standalone="no"?>
<!-- Created with Inkscape (http://www.inkscape.org/) -->

<svg
   xmlns:dc="http://purl.org/dc/elements/1.1/"
   xmlns:cc="http://creativecommons.org/ns#"
   xmlns:rdf="http://www.w3.org/1999/02/22-rdf-syntax-ns#"
   xmlns:svg="http://www.w3.org/2000/svg"
   xmlns="http://www.w3.org/2000/svg"
   xmlns:sodipodi="http://sodipodi.sourceforge.net/DTD/sodipodi-0.dtd"
   xmlns:inkscape="http://www.inkscape.org/namespaces/inkscape"
   version="1.1"
   width="50"
   height="50"
   id="svg11581"
   inkscape:version="0.91 r13725"
   sodipodi:docname="risk-s.svg">
  <sodipodi:namedview
     pagecolor="#ffffff"
     bordercolor="#666666"
     borderopacity="1"
     objecttolerance="10"
     gridtolerance="10"
     guidetolerance="10"
     inkscape:pageopacity="0"
     inkscape:pageshadow="2"
     inkscape:window-width="1920"
     inkscape:window-height="1137"
     id="namedview6"
     showgrid="false"
     inkscape:zoom="8.3040341"
     inkscape:cx="-12.244089"
     inkscape:cy="14.209961"
     inkscape:window-x="1912"
     inkscape:window-y="-8"
     inkscape:window-maximized="1"
     inkscape:current-layer="svg11581" />
  <defs
     id="defs11583" />
  <metadata
     id="metadata11586">
    <rdf:RDF>
      <cc:Work
         rdf:about="">
        <dc:format>image/svg+xml</dc:format>
        <dc:type
           rdf:resource="http://purl.org/dc/dcmitype/StillImage" />
        <dc:title></dc:title>
      </cc:Work>
    </rdf:RDF>
  </metadata>
  <path
     d="m 13.704256,22.382745 5.558687,-1.002377 c 0.264602,-0.04804 0.44073,-0.301247 0.392658,-0.565449 -0.04807,-0.265118 -0.301256,-0.441658 -0.56498,-0.393591 l -5.559155,1.002846 c -0.263666,0.04672 -0.440262,0.301248 -0.39219,0.565437 0.04714,0.264673 0.301315,0.44073 0.56498,0.393134 z m 7.589077,-2.928075 c 0.263665,-0.04804 0.439793,-0.301247 0.391721,-0.565437 l -1.001435,-5.559165 c -0.04807,-0.264599 -0.302252,-0.440729 -0.565916,-0.393591 -0.264134,0.04804 -0.44073,0.301259 -0.392658,0.56639 l 1.001904,5.558151 c 0.04761,0.265191 0.301314,0.44079 0.566384,0.393652 z m 16.944469,-3.75571 c -0.838656,-1.496389 -2.429254,-2.425445 -4.150775,-2.425445 -0.810084,0 -1.612555,0.209905 -2.318823,0.606841 l -8.932698,5.014201 1.027609,1.831482 8.933166,-5.014199 c 0.395057,-0.221337 0.841468,-0.338378 1.292208,-0.338378 0.961913,0 1.850047,0.51831 2.318356,1.353164 0.34599,0.61686 0.430717,1.332196 0.238428,2.014699 -0.191352,0.682492 -0.636824,1.249872 -1.253682,1.595867 l -8.097378,4.543956 C 27.139986,23.894476 26.679757,22.984492 25.959611,22.26388 24.689769,20.995444 22.676945,20.546638 20.986397,21.153479 l -0.731035,0.263199 0.710131,1.975227 0.733906,-0.261787 c 0.944287,-0.343654 2.068039,-0.08764 2.775772,0.618731 0.408351,0.408814 0.666805,0.926666 0.748662,1.487831 -0.03424,-0.0085 -0.06857,-0.01666 -0.101362,-0.0262 -0.68396,-0.192293 -1.250344,-0.638237 -1.596804,-1.257488 l -0.381707,-0.674416 -1.832891,1.029948 0.384109,0.674415 c 0.620663,1.107529 1.635389,1.907134 2.859502,2.250787 0.04233,0.01086 0.0852,0.02281 0.128055,0.03283 -0.0647,0.08184 -0.133734,0.159907 -0.207043,0.233215 l -6.693799,6.694275 c -0.500688,0.500217 -1.167023,0.775294 -1.875751,0.775294 -0.709196,0 -1.375531,-0.275077 -1.875282,-0.775294 -0.499752,-0.500228 -0.774834,-1.165626 -0.774834,-1.87529 0,-0.709192 0.275082,-1.375 0.774834,-1.874759 l 5.813803,-5.813265 -1.485436,-1.485428 -5.813276,5.813275 c -0.89779,0.898528 -1.39233,2.091785 -1.39233,3.360162 0,1.269378 0.49454,2.462105 1.39216,3.360718 0.898147,0.898154 2.090875,1.391695 3.36025,1.391695 1.269375,0 2.462102,-0.493541 3.36025,-1.391695 l 6.695264,-6.693793 c 0.490206,-0.492141 0.867172,-1.087104 1.103257,-1.739622 0.387916,-0.10333 0.756741,-0.251768 1.099454,-0.445003 l 8.255412,-4.632426 c 1.105191,-0.621133 1.903798,-1.636329 2.246977,-2.85904 0.343591,-1.22323 0.191293,-2.50596 -0.428843,-3.610627 z"
     id="path3743"
     style="fill:#212121"
     inkscape:connector-curvature="0" />
</svg>

