<?xml version="1.0" encoding="UTF-8" standalone="no"?>
<!-- Generator: Adobe Illustrator 19.2.1, SVG Export Plug-In . SVG Version: 6.00 Build 0)  -->

<svg
   xmlns:dc="http://purl.org/dc/elements/1.1/"
   xmlns:cc="http://creativecommons.org/ns#"
   xmlns:rdf="http://www.w3.org/1999/02/22-rdf-syntax-ns#"
   xmlns:svg="http://www.w3.org/2000/svg"
   xmlns="http://www.w3.org/2000/svg"
   xmlns:sodipodi="http://sodipodi.sourceforge.net/DTD/sodipodi-0.dtd"
   xmlns:inkscape="http://www.inkscape.org/namespaces/inkscape"
   version="1.1"
   id="Layer_1"
   x="0px"
   y="0px"
   viewBox="0 0 114 56.7"
   xml:space="preserve"
   inkscape:version="0.91 r13725"
   width="100%"
   height="100%"
   sodipodi:docname="tracy.svg"><metadata
     id="metadata15"><rdf:RDF><cc:Work
         rdf:about=""><dc:format>image/svg+xml</dc:format><dc:type
           rdf:resource="http://purl.org/dc/dcmitype/StillImage" /><dc:title /></cc:Work></rdf:RDF></metadata><defs
     id="defs13" /><sodipodi:namedview
     pagecolor="#ffffff"
     bordercolor="#666666"
     borderopacity="1"
     objecttolerance="10"
     gridtolerance="10"
     guidetolerance="10"
     inkscape:pageopacity="0"
     inkscape:pageshadow="2"
     inkscape:window-width="1920"
     inkscape:window-height="1137"
     id="namedview11"
     showgrid="false"
     inkscape:zoom="5.0633482"
     inkscape:cx="51.727859"
     inkscape:cy="28.926437"
     inkscape:window-x="1912"
     inkscape:window-y="-8"
     inkscape:window-maximized="1"
     inkscape:current-layer="text3010" /><style
     type="text/css"
     id="style3">
	.st0{fill:#2D3C49;}
	.st1{fill:#02B3E4;}
</style><g
     id="wordmark"
     transform="translate(0,-63.3)" /><path
     id="mark"
     class="st1"
     d="m 42.789662,7.1647833 -1.67605,-1.150175 -29.77353,0 -10.72553993,8.0590007 0.76640003,1.664 13.5499999,0 0.0289,33.310022 c 0.61139,0.76574 1.34309,1.13377 1.85367,1.63776 2.41171,-1.3924 11.81663,-6.014385 13.81991,-7.170975 l -0.57468,-27.776807 6.36649,0 c 7.10063,-9.6008617 0.082,-0.02108 6.36441,-8.5728257 z m -24.75997,40.2729177 -0.0878,-31.700092 9.42261,0 -0.1031,-2.4 -9.33048,0 -12.41,0 7.18533,-5.5000007 27.23475,0 c -4.53125,5.5786387 0.0761,-0.05749 -4.50381,5.5000007 -3.29698,0 -4.83575,0 -8.22127,0 0,4.425628 0.54273,28.316445 0.54273,29.134081 -4.57272,2.640061 -5.13701,2.686121 -9.72896,4.966011 z"
     inkscape:connector-curvature="0"
     style="fill:#8bc34a;fill-opacity:1"
     sodipodi:nodetypes="ccccccccccccccccccccccccc" /><g
     style="font-style:normal;font-weight:normal;font-size:40px;line-height:125%;font-family:Sans;letter-spacing:0px;word-spacing:0px;fill:#607d8b;fill-opacity:1;stroke:none"
     id="text3010"><path
       d="m 42.791055,17.947998 0,0.812 -4.788,0 0,20.188 -0.924,0 0,-20.188 -4.844,0 0,-0.812 10.556,0 z"
       style="font-style:normal;font-variant:normal;font-weight:normal;font-stretch:normal;font-size:28px;font-family:'Poiret One';-inkscape-font-specification:'Poiret One';fill:#607d8b;fill-opacity:1"
       id="path3338" /><path
       d="m 45.47818,17.947998 1.204,0 q 2.716,0 4.76,2.016 2.072,1.988 2.072,4.704 0,2.688 -2.1,4.676 -2.1,1.988 -4.508,1.988 l -0.196,0 7.224,7.616 -1.204,0 -6.356,-6.664 0,6.664 -0.896,0 0,-21 z m 0.896,12.572 0.504,0 q 2.268,0 4.004,-1.736 1.736,-1.736 1.736,-4.116 0,-2.38 -1.792,-4.144 -1.792,-1.764 -4.088,-1.764 l -0.364,0 0,11.76 z"
       style="font-style:normal;font-variant:normal;font-weight:normal;font-stretch:normal;font-size:28px;font-family:'Poiret One';-inkscape-font-specification:'Poiret One';fill:#607d8b;fill-opacity:1"
       id="path3340" /><path
       d="m 66.06518,17.443998 10.5,21.504 -0.98,0 -3.976,-8.008 -11.228,0 -3.92,8.008 -0.868,0 10.472,-21.504 z m -0.084,1.932 -5.236,10.752 10.528,0 -5.292,-10.752 z"
       style="font-style:normal;font-variant:normal;font-weight:normal;font-stretch:normal;font-size:28px;font-family:'Poiret One';-inkscape-font-specification:'Poiret One';fill:#607d8b;fill-opacity:1"
       id="path3342" /><path
       d="m 87.580992,39.255998 -0.308,0 q -2.884,0 -5.376,-1.512 -2.492,-1.512 -3.948,-4.004 -1.428,-2.52 -1.428,-5.348 0,-4.452 3.22,-7.644 3.22,-3.22 7.7,-3.22 2.996,0 5.684,1.568 l 0,1.036 q -2.632,-1.792 -5.684,-1.792 -4.116,0 -7.056,2.968 -2.94,2.94 -2.94,7.084 0,4.116 2.94,7.084 2.94,2.968 7.056,2.968 3.052,0 5.684,-1.792 l 0,1.036 q -2.548,1.568 -5.544,1.568 z"
       style="font-style:normal;font-variant:normal;font-weight:normal;font-stretch:normal;font-size:28px;font-family:'Poiret One';-inkscape-font-specification:'Poiret One';fill:#607d8b;fill-opacity:1"
       id="path3344" /><path
       d="m 102.65243,38.947998 -0.924,0 0,-8.4 -6.384,-12.6 1.008,0 5.908,11.62 5.796,-11.62 0.84,0 -6.244,12.6 0,8.4 z"
       style="font-style:normal;font-variant:normal;font-weight:normal;font-stretch:normal;font-size:28px;font-family:'Poiret One';-inkscape-font-specification:'Poiret One';fill:#607d8b;fill-opacity:1"
       id="path3346" /></g></svg>