<?xml version="1.0" encoding="UTF-8" standalone="no"?>
<!-- Created with Inkscape (http://www.inkscape.org/) -->

<svg
   xmlns:dc="http://purl.org/dc/elements/1.1/"
   xmlns:cc="http://creativecommons.org/ns#"
   xmlns:rdf="http://www.w3.org/1999/02/22-rdf-syntax-ns#"
   xmlns:svg="http://www.w3.org/2000/svg"
   xmlns="http://www.w3.org/2000/svg"
   xmlns:sodipodi="http://sodipodi.sourceforge.net/DTD/sodipodi-0.dtd"
   xmlns:inkscape="http://www.inkscape.org/namespaces/inkscape"
   width="34.000004"
   height="31.866421"
   id="svg11581"
   version="1.1"
   inkscape:version="0.48.4 r9939"
   sodipodi:docname="tracyml_icons_risk_fa_impl.svg">
  <defs
     id="defs11583" />
  <sodipodi:namedview
     id="base"
     pagecolor="#ffffff"
     bordercolor="#666666"
     borderopacity="1.0"
     inkscape:pageopacity="0.0"
     inkscape:pageshadow="2"
     inkscape:zoom="1.979899"
     inkscape:cx="114.0021"
     inkscape:cy="-15.471025"
     inkscape:document-units="px"
     inkscape:current-layer="svg11581"
     showgrid="false"
     fit-margin-top="1"
     fit-margin-right="1"
     fit-margin-bottom="1"
     fit-margin-left="1"
     inkscape:window-width="1920"
     inkscape:window-height="1025"
     inkscape:window-x="0"
     inkscape:window-y="30"
     inkscape:window-maximized="1"
     units="px" />
  <metadata
     id="metadata11586">
    <rdf:RDF>
      <cc:Work
         rdf:about="">
        <dc:format>image/svg+xml</dc:format>
        <dc:type
           rdf:resource="http://purl.org/dc/dcmitype/StillImage" />
        <dc:title></dc:title>
      </cc:Work>
    </rdf:RDF>
  </metadata>
  <path
     style="fill: white;"
     unicode=""
     horiz-adv-x="1920"
     d="m 10.883347,15.9332 q -2.699966,0.0832 -4.416614,2.13322 l -2.233313,0 q -1.366618,0 -2.299876,-0.67474 Q 1,16.71661 1,15.41653 1,9.53321 3.066704,9.53321 q 0.09993,0 0.725104,0.35005 0.625034,0.35006 1.624807,0.70834 1.000082,0.35828 1.983375,0.35828 1.116657,0 2.216858,-0.38332 -0.08323,0.61678 -0.08323,1.09989 0,2.31664 1.349828,4.26675 z m 17.849834,10.6167 q 0,1.99988 -1.216465,3.15834 -1.21675,1.15818 -3.233419,1.15818 l -14.566665,0 q -2.016645,0 -3.23311,-1.15818 -1.21675,-1.15846 -1.21675,-3.15834 0,-0.88351 0.05819,-1.7249 0.05819,-0.84168 0.233482,-1.81674 0.174812,-0.97507 0.441587,-1.80852 0.266751,-0.83314 0.716566,-1.62478 0.45015,-0.79164 1.033352,-1.35014 0.583227,-0.55819 1.424905,-0.89174 0.841701,-0.33326 1.858574,-0.33326 0.166704,0 0.716566,0.35828 0.549933,0.35828 1.216751,0.80018 0.666531,0.44161 1.783187,0.7999 1.116657,0.35828 2.250127,0.35828 1.133136,0 2.249792,-0.35828 1.116657,-0.35829 1.783498,-0.7999 0.666507,-0.4419 1.21644,-0.80018 0.550268,-0.35828 0.716877,-0.35828 1.016586,0 1.858264,0.33326 0.841701,0.33355 1.424904,0.89174 0.583513,0.5585 1.033352,1.35014 0.450149,0.79164 0.716876,1.62478 0.266417,0.83345 0.441588,1.80852 0.174813,0.97506 0.233243,1.81674 0.05819,0.84139 0.05819,1.7249 z M 11.666738,5.26646 q 0,1.76671 -1.25002,3.01673 -1.25002,1.25002 -3.016728,1.25002 -1.766707,0 -3.016417,-1.25002 -1.250044,-1.25002 -1.250044,-3.01673 0,-1.7664 1.250044,-3.01642 Q 5.633283,1 7.39999,1 q 1.766708,0 3.016728,1.25004 1.25002,1.25002 1.25002,3.01642 z m 11.733384,6.39999 q 0,2.65019 -1.875054,4.52494 -1.875054,1.87503 -4.524937,1.87503 -2.650217,0 -4.525247,-1.87503 -1.874743,-1.87475 -1.874743,-4.52494 0,-2.64991 1.874743,-4.52496 1.87503,-1.87503 4.525247,-1.87503 2.649883,0 4.524937,1.87503 1.875054,1.87505 1.875054,4.52496 z m 9.59983,3.75008 q 0,1.30008 -0.933258,1.97515 -0.933234,0.67474 -2.300161,0.67474 l -2.233337,0 q -1.716649,-2.0499 -4.416615,-2.13322 1.350138,-1.95011 1.350138,-4.26675 0,-0.48311 -0.08323,-1.09989 1.099867,0.38332 2.216524,0.38332 0.983316,0 1.983399,-0.35828 1.000083,-0.35828 1.625093,-0.70834 0.62501,-0.35005 0.724818,-0.35005 2.06668,0 2.06668,5.88332 z M 30.86671,5.26646 q 0,1.76671 -1.25002,3.01673 -1.25002,1.25002 -3.016728,1.25002 -1.766708,0 -3.016752,-1.25002 -1.25002,-1.25002 -1.25002,-3.01673 0,-1.7664 1.25002,-3.01642 Q 24.833254,1 26.599962,1 q 1.766708,0 3.016728,1.25004 1.25002,1.25002 1.25002,3.01642 z"
     id="path8876"/>
</svg>
