<?xml version="1.0" encoding="UTF-8" standalone="no"?>
<!-- Created with Inkscape (http://www.inkscape.org/) -->

<svg
   xmlns:dc="http://purl.org/dc/elements/1.1/"
   xmlns:cc="http://creativecommons.org/ns#"
   xmlns:rdf="http://www.w3.org/1999/02/22-rdf-syntax-ns#"
   xmlns:svg="http://www.w3.org/2000/svg"
   xmlns="http://www.w3.org/2000/svg"
   version="1.1"
   width="20.791019"
   height="28.419922"
   id="svg11581">
  <defs
     id="defs11583" />
  <metadata
     id="metadata11586">
    <rdf:RDF>
      <cc:Work
         rdf:about="">
        <dc:format>image/svg+xml</dc:format>
        <dc:type
           rdf:resource="http://purl.org/dc/dcmitype/StillImage" />
        <dc:title></dc:title>
      </cc:Work>
    </rdf:RDF>
  </metadata>
  <path
     d="m 16.90821,19.474609 c -2e-5,2.449224 -0.86721,4.388675 -2.60157,5.818359 -1.73438,1.41797 -4.08399,2.126953 -7.04882,2.126954 C 4.66797,27.419921 2.58203,26.892578 1,25.83789 l 0,-4.816406 c 2.26172,1.26563 4.35937,1.898442 6.29297,1.898438 1.31249,4e-6 2.33788,-0.24609 3.07617,-0.738282 0.73828,-0.503901 1.10742,-1.189447 1.10743,-2.05664 -1e-5,-0.503899 -0.082,-0.943352 -0.2461,-1.31836 C 11.07812,18.41993 10.85546,18.062509 10.5625,17.734375 10.26953,17.406259 9.54296,16.808604 8.38282,15.941406 6.76562,14.781262 5.62891,13.632826 4.97266,12.496093 4.31641,11.35939 3.98828,10.134782 3.98829,8.822265 3.98828,7.310566 4.35156,5.962911 5.07813,4.779297 5.80469,3.584008 6.83594,2.658227 8.17188,2.001953 9.51953,1.33401 11.0664,1.000026 12.8125,1 c 2.54296,2.6e-5 4.86913,0.580103 6.97852,1.740234 L 17.875,6.835937 C 16.04686,5.968771 14.35937,5.535177 12.8125,5.535156 11.83984,5.535177 11.04296,5.798849 10.42188,6.326172 9.80078,6.853536 9.49023,7.5508 9.49024,8.417968 c -10e-6,0.714862 0.19335,1.341815 0.58008,1.88086 0.38671,0.52736 1.25389,1.230484 2.60156,2.109375 1.41795,0.937514 2.4785,1.974622 3.18164,3.111328 0.70311,1.12501 1.05467,2.443368 1.05469,3.955078"
     id="path3743"
     style="fill:white;" />
</svg>
