<?xml version="1.0" encoding="UTF-8" standalone="no"?>
<!-- Created with Inkscape (http://www.inkscape.org/) -->

<svg
   xmlns:dc="http://purl.org/dc/elements/1.1/"
   xmlns:cc="http://creativecommons.org/ns#"
   xmlns:rdf="http://www.w3.org/1999/02/22-rdf-syntax-ns#"
   xmlns:svg="http://www.w3.org/2000/svg"
   xmlns="http://www.w3.org/2000/svg"
   version="1.1"
   width="100%"
   height="100%"
   viewBox="0 0 34 29.897325"
   id="Capa_1"
   xml:space="preserve"><metadata
     id="metadata4473"><rdf:RDF><cc:Work
         rdf:about=""><dc:format>image/svg+xml</dc:format><dc:type
           rdf:resource="http://purl.org/dc/dcmitype/StillImage" /><dc:title></dc:title></cc:Work></rdf:RDF></metadata><defs
     id="defs4471" /><path
     d="M 3.9473524,11.924328 10.37062,10.766045 c 0.305757,-0.05551 0.509279,-0.348102 0.45373,-0.653397 C 10.768801,9.8062944 10.476238,9.6022954 10.171495,9.6578384 L 3.7476868,10.816665 c -0.3046747,0.05398 -0.5087383,0.348103 -0.4531891,0.653383 0.054467,0.305839 0.3481802,0.50928 0.6528547,0.45428 z M 12.71681,8.5408294 c 0.304675,-0.05551 0.508197,-0.348102 0.452648,-0.653383 l -1.157195,-6.423819 c -0.05555,-0.305754 -0.349263,-0.50927898 -0.653937,-0.45481 -0.305216,0.055516 -0.50928,0.348117 -0.453731,0.654485 l 1.157737,6.422648 c 0.05501,0.306438 0.34818,0.509349 0.654478,0.454879 z m 19.579957,-4.339861 c -0.969098,-1.729132 -2.807093,-2.80269 -4.796373,-2.80269 -0.936082,0 -1.863367,0.242553 -2.679486,0.701227 l -10.32206,5.794093 1.18744,2.1163456 10.322601,-5.7940916 c 0.456503,-0.255763 0.972347,-0.391009 1.493194,-0.391009 1.111526,0 2.137797,0.598927 2.678946,1.563631 0.399804,0.712804 0.497709,1.539402 0.275512,2.328059 -0.221114,0.788644 -0.735874,1.444273 -1.448676,1.844083 l -9.356818,5.2507086 c -0.178215,-1.140136 -0.710026,-2.191656 -1.542181,-3.024349 -1.46735,-1.465725 -3.793241,-1.9843366 -5.746732,-1.28311 l -0.844738,0.304137 0.820583,2.282447 0.848055,-0.302504 c 1.091159,-0.397105 2.389695,-0.101267 3.207507,0.714966 0.471864,0.4724 0.770517,1.070797 0.865106,1.719243 -0.03957,-0.0098 -0.07923,-0.01925 -0.117127,-0.03027 -0.790341,-0.222202 -1.444819,-0.737507 -1.845166,-1.453074 l -0.441077,-0.779312 -2.117973,1.190142 0.443852,0.779312 c 0.7172,1.27979 1.889753,2.203763 3.30426,2.600867 0.04892,0.01255 0.09845,0.02636 0.147973,0.03794 -0.07476,0.09457 -0.154535,0.184778 -0.239246,0.269488 l -7.7349309,7.735481 c -0.5785637,0.578019 -1.3485382,0.895881 -2.1674997,0.895881 -0.8195019,0 -1.5894766,-0.317862 -2.1669574,-0.895881 -0.5774808,-0.578032 -0.8953491,-1.346924 -0.8953491,-2.166966 0,-0.819498 0.3178683,-1.588864 0.8953491,-2.166353 L 11.042818,14.52196 9.3263431,12.805493 2.6088884,19.522946 C 1.5714593,20.561228 1,21.940081 1,23.405737 c 0,1.466813 0.5714593,2.845053 1.6086925,3.883433 1.0378416,1.03785 2.4160829,1.608155 3.8828916,1.608155 1.4668097,0 2.8450496,-0.570305 3.8828929,-1.608155 L 18.1111,19.554246 c 0.566452,-0.568687 1.002049,-1.256188 1.274854,-2.010197 0.448252,-0.119401 0.874443,-0.290927 1.27046,-0.514217 l 9.539432,-5.352939 c 1.277089,-0.717742 2.199908,-1.8908386 2.596465,-3.3037256 0.397031,-1.413488 0.221046,-2.895729 -0.495544,-4.172213 z"
     id="path4437"
     style="fill:white" /></svg>
