<?xml version="1.0" encoding="UTF-8" standalone="no"?>
<!-- Created with Inkscape (http://www.inkscape.org/) -->

<svg
   xmlns:dc="http://purl.org/dc/elements/1.1/"
   xmlns:cc="http://creativecommons.org/ns#"
   xmlns:rdf="http://www.w3.org/1999/02/22-rdf-syntax-ns#"
   xmlns:svg="http://www.w3.org/2000/svg"
   xmlns="http://www.w3.org/2000/svg"
   version="1.1"
   width="34.000031"
   height="34"
   id="svg11581">
  <defs
     id="defs11583" />
  <metadata
     id="metadata11586">
    <rdf:RDF>
      <cc:Work
         rdf:about="">
        <dc:format>image/svg+xml</dc:format>
        <dc:type
           rdf:resource="http://purl.org/dc/dcmitype/StillImage" />
        <dc:title></dc:title>
      </cc:Work>
    </rdf:RDF>
  </metadata>
  <path
     d="m 19.66655,9.66682 0,9.3333 q 0,0.29184 -0.18722,0.47913 -0.18781,0.1878 -0.47916,0.1878 l -6.66673,0 q -0.29185,0 -0.47911,-0.1878 -0.18782,-0.18722 -0.18782,-0.47913 l 0,-1.33329 q 0,-0.29185 0.18782,-0.47915 0.1872,-0.18781 0.47911,-0.18781 l 4.66664,0 0,-7.33319 q 0,-0.29185 0.18721,-0.47912 0.18781,-0.18782 0.47912,-0.18782 l 1.33365,0 q 0.29155,0 0.47915,0.18782 0.18722,0.1872 0.18722,0.47912 z m 8.66682,7.3332 q 0,-3.08311 -1.52094,-5.68749 Q 25.29146,8.70854 22.68747,7.1876 20.08313,5.66663 16.99998,5.66663 q -3.08346,0 -5.68745,1.52097 -2.60437,1.52094 -4.12496,4.12493 -1.52094,2.60438 -1.52094,5.68749 0,3.08347 1.52094,5.68745 1.52059,2.60438 4.12496,4.12493 2.60399,1.52097 5.68745,1.52097 3.08315,0 5.68749,-1.52097 2.60399,-1.52055 4.12496,-4.12493 1.52094,-2.60398 1.52094,-5.68745 z m 4.66666,0 q 0,4.3542 -2.14584,8.03127 -2.14581,3.67709 -5.8229,5.8229 Q 21.35419,33 16.99998,33 12.64581,33 8.96871,30.85419 5.29164,28.70838 3.14581,25.03129 1,21.35422 1,17.00002 1,12.64581 3.14581,8.96871 5.29164,5.29164 8.96871,3.14581 12.64581,1 16.99998,1 q 4.35421,0 8.03131,2.14581 3.67709,2.14583 5.8229,5.8229 2.14584,3.6771 2.14584,8.03131 z"
     id="path10080"
     style="fill:white" />
</svg>
