<?xml version="1.0" encoding="UTF-8" standalone="no"?>
<!-- Created with Inkscape (http://www.inkscape.org/) -->

<svg
   xmlns:dc="http://purl.org/dc/elements/1.1/"
   xmlns:cc="http://creativecommons.org/ns#"
   xmlns:rdf="http://www.w3.org/1999/02/22-rdf-syntax-ns#"
   xmlns:svg="http://www.w3.org/2000/svg"
   xmlns="http://www.w3.org/2000/svg"
   version="1.1"
   width="34"
   height="29.42898"
   id="svg11581">
  <defs
     id="defs11583" />
  <metadata
     id="metadata11586">
    <rdf:RDF>
      <cc:Work
         rdf:about="">
        <dc:format>image/svg+xml</dc:format>
        <dc:type
           rdf:resource="http://purl.org/dc/dcmitype/StillImage" />
        <dc:title></dc:title>
      </cc:Work>
    </rdf:RDF>
  </metadata>
  <path
     d="m 23.85728,16.99988 5.44613,0 q -0.0897,0.10707 -0.17861,0.18781 -0.0897,0.0805 -0.16047,0.1339 l -0.0529,0.0718 -11.12487,10.71414 q -0.32132,0.32145 -0.78569,0.32145 -0.46436,0 -0.78571,-0.32145 L 5.07226,17.35774 q -0.0897,-0.036 -0.37496,-0.3574 l 6.5893,0 q 0.39269,0 0.70519,-0.24096 0.31269,-0.24096 0.40197,-0.61602 l 1.25007,-5.01785 3.39272,11.91061 q 0.10732,0.35705 0.41063,0.58921 0.30341,0.23228 0.69656,0.23228 0.37493,0 0.67849,-0.23228 0.30369,-0.23227 0.4106,-0.58921 l 2.60706,-8.66075 1.00025,2.00014 q 0.32132,0.62486 1.01788,0.62486 z M 33,9.35703 q 0,2.58938 -1.83927,5.35727 l -6.58942,0 -1.98215,-3.94634 q -0.14258,-0.30377 -0.45511,-0.48228 -0.31253,-0.17861 -0.65207,-0.14283 -0.80332,0.0892 -0.99982,0.82171 L 18.17854,18.64305 14.6786,6.39303 Q 14.57128,6.03596 14.25901,5.80382 13.9465,5.57155 13.55378,5.57155 q -0.39312,0 -0.69653,0.24096 -0.30371,0.24096 -0.39299,0.61601 l -2.07146,8.2857 -7.55354,0 Q 1,11.94633 1,9.35696 1,5.42861 3.26793,3.21429 5.53588,1 9.53588,1 q 1.10703,0 2.2587,0.38387 1.15195,0.38387 2.1431,1.03587 0.991,0.65169 1.70519,1.22324 0.71447,0.57125 1.35727,1.21407 0.64279,-0.64282 1.35698,-1.21407 0.71447,-0.57155 1.70547,-1.22324 0.99115,-0.652 2.14267,-1.03587 Q 23.35724,1 24.46409,1 q 4.00031,0 6.26795,2.21429 2.26795,2.21432 2.26795,6.14267 z"
     id="path11030"
     style="fill:white" />
</svg>
