<?xml version="1.0" encoding="UTF-8" standalone="no"?>
<!-- Created with Inkscape (http://www.inkscape.org/) -->

<svg
   xmlns:dc="http://purl.org/dc/elements/1.1/"
   xmlns:cc="http://creativecommons.org/ns#"
   xmlns:rdf="http://www.w3.org/1999/02/22-rdf-syntax-ns#"
   xmlns:svg="http://www.w3.org/2000/svg"
   xmlns="http://www.w3.org/2000/svg"
   version="1.1"
   width="34.000011"
   height="23.333321"
   id="svg11581">
  <defs
     id="defs11583" />
  <metadata
     id="metadata11586">
    <rdf:RDF>
      <cc:Work
         rdf:about="">
        <dc:format>image/svg+xml</dc:format>
        <dc:type
           rdf:resource="http://purl.org/dc/dcmitype/StillImage" />
        <dc:title></dc:title>
      </cc:Work>
    </rdf:RDF>
  </metadata>
  <path
     d="m 13.79999,15.93337 6.40004,0 0,-1.60011 -2.13335,0 0,-7.46659 -1.90002,0 -2.46663,2.28333 1.2833,1.33329 q 0.70001,-0.61668 0.91669,-0.94997 l 0.0333,0 0,4.79994 -2.13335,0 0,1.60011 z m 8.53334,-4.26677 q 0,1.16667 -0.34996,2.36675 -0.35004,1.19996 -0.99168,2.23331 -0.6417,1.03326 -1.6917,1.68332 -1.04998,0.65004 -2.29998,0.65004 -1.25,0 -2.29999,-0.65004 -1.04999,-0.65006 -1.6917,-1.68332 -0.64164,-1.03335 -0.99163,-2.23331 -0.35001,-1.20008 -0.35001,-2.36675 0,-1.16658 0.35001,-2.36663 0.34999,-1.19996 0.99163,-2.23332 0.64171,-1.03338 1.6917,-1.68332 1.04999,-0.65006 2.29999,-0.65006 1.25,0 2.29998,0.65006 1.05,0.64994 1.6917,1.68332 0.64164,1.03336 0.99168,2.23332 0.34996,1.20005 0.34996,2.36663 z m 8.53337,4.26677 0,-8.53342 q -1.76667,0 -3.01669,-1.25 -1.24999,-1.24998 -1.24999,-3.01669 l -19.20002,0 q 0,1.76671 -1.25001,3.01669 -1.24997,1.25 -3.01664,1.25 l 0,8.53342 q 1.76667,0 3.01664,1.24987 Q 7.4,18.43332 7.4,20.19993 l 19.20002,0 q 0,-1.76661 1.24999,-3.01669 1.25002,-1.24987 3.01669,-1.24987 z m 2.13331,-13.86675 0,19.20005 q 0,0.43334 -0.31669,0.74999 -0.31666,0.31666 -0.74998,0.31666 l -29.86667,0 q -0.43332,0 -0.74999,-0.31666 Q 1,21.70001 1,21.26667 L 1,2.06662 Q 1,1.6333 1.31668,1.31664 1.63335,1 2.06667,1 l 29.86667,0 q 0.43332,0 0.74998,0.31664 0.31669,0.31666 0.31669,0.74998 z"
     id="path10414"
     style="fill:white" />
</svg>
