<?xml version="1.0" encoding="UTF-8" standalone="no"?>
<!-- Created with Inkscape (http://www.inkscape.org/) -->

<svg
   xmlns:dc="http://purl.org/dc/elements/1.1/"
   xmlns:cc="http://creativecommons.org/ns#"
   xmlns:rdf="http://www.w3.org/1999/02/22-rdf-syntax-ns#"
   xmlns:svg="http://www.w3.org/2000/svg"
   xmlns="http://www.w3.org/2000/svg"
   version="1.1"
   width="36.487469"
   height="36.487385"
   id="svg11581">
  <defs
     id="defs11583" />
  <metadata
     id="metadata11586">
    <rdf:RDF>
      <cc:Work
         rdf:about="">
        <dc:format>image/svg+xml</dc:format>
        <dc:type
           rdf:resource="http://purl.org/dc/dcmitype/StillImage" />
        <dc:title></dc:title>
      </cc:Work>
    </rdf:RDF>
  </metadata>
  <path
     d="m 18.24373,1 q 3.50251,0 6.6973,1.36626 3.19465,1.366618 5.50423,3.675893 2.30924,2.30966 3.67595,5.504146 1.36626,3.194871 1.36626,6.697379 0,3.502535 -1.36626,6.697406 -1.36671,3.194844 -3.67595,5.504118 -2.30958,2.309303 -5.50423,3.675923 -3.19479,1.36626 -6.6973,1.36626 -3.50251,0 -6.69746,-1.36626 Q 8.35146,32.754505 6.04221,30.445202 3.73296,28.135928 2.36623,24.941084 1,21.746213 1,18.243678 1,14.74117 2.36623,11.546299 3.73296,8.351813 6.04221,6.042153 8.35146,3.732878 11.54627,2.36626 14.74122,1 18.24373,1 z m 0,2.4633 q -3.6565,0 -6.94754,1.732059 l 3.73359,3.73367 q 1.57817,-0.538799 3.21395,-0.538799 1.63579,0 3.21396,0.538799 l 3.73359,-3.73367 Q 21.90024,3.4633 18.24373,3.4633 z M 5.19544,25.191275 8.929,21.457578 q -0.53877,-1.578034 -0.53877,-3.2139 0,-1.635839 0.53877,-3.213873 L 5.19544,11.296108 q -1.7322,3.291064 -1.7322,6.94757 0,3.656533 1.7322,6.947597 z m 13.04829,7.83281 q 3.65651,0 6.94755,-1.732061 l -3.73359,-3.73367 q -1.57817,0.538799 -3.21396,0.538799 -1.63578,0 -3.21395,-0.538799 l -3.73359,3.73367 q 3.29104,1.732061 6.94754,1.732061 z m 0,-7.390177 q 3.05996,0 5.22501,-2.165164 2.16522,-2.165164 2.16522,-5.225066 0,-3.059875 -2.16522,-5.225039 -2.16505,-2.165164 -5.22501,-2.165164 -3.05996,0 -5.22501,2.165164 -2.16522,2.165164 -2.16522,5.225039 0,3.059902 2.16522,5.225066 2.16505,2.165164 5.22501,2.165164 z m 9.31471,-4.17633 3.73358,3.733697 q 1.73204,-3.291064 1.73204,-6.947597 0,-3.656506 -1.73204,-6.94757 l -3.73358,3.733697 q 0.53877,1.578034 0.53877,3.213873 0,1.635866 -0.53877,3.2139 z"
     id="path10878"
     style="fill:white" />
</svg>
