<?xml version="1.0" encoding="UTF-8" standalone="no"?>
<!-- Created with Inkscape (http://www.inkscape.org/) -->

<svg
   xmlns:dc="http://purl.org/dc/elements/1.1/"
   xmlns:cc="http://creativecommons.org/ns#"
   xmlns:rdf="http://www.w3.org/1999/02/22-rdf-syntax-ns#"
   xmlns:svg="http://www.w3.org/2000/svg"
   xmlns="http://www.w3.org/2000/svg"
   version="1.1"
   width="16.25741"
   height="22"
   id="svg11581">
  <defs
     id="defs11583" />
  <metadata
     id="metadata11586">
    <rdf:RDF>
      <cc:Work
         rdf:about="">
        <dc:format>image/svg+xml</dc:format>
        <dc:type
           rdf:resource="http://purl.org/dc/dcmitype/StillImage" />
        <dc:title></dc:title>
      </cc:Work>
    </rdf:RDF>
  </metadata>
  <path
     d="m 14.91091,5.8021 -3.61393,3.61369 0,10.19819 q 0,0.56929 -0.40837,0.97765 Q 10.48022,21 9.91097,21 9.34147,21 8.9331,20.59163 8.52472,20.18327 8.52472,19.61398 l 0,-4.75247 -0.79204,0 0,4.75247 q 0,0.56929 -0.40837,0.97765 Q 6.91594,21 6.34643,21 5.77716,21 5.3688,20.59163 4.96042,20.18327 4.96042,19.61398 l 0,-10.19819 L 1.34649,5.8021 Q 1,5.45559 1,4.96043 1,4.4655 1.34649,4.11898 1.69299,3.77225 2.18817,3.77225 q 0.49494,0 0.84167,0.34673 l 2.82164,2.82166 4.55441,0 2.8219,-2.82166 q 0.34651,-0.34673 0.84144,-0.34673 0.49516,0 0.84168,0.34673 0.3465,0.34652 0.3465,0.84145 0,0.49516 -0.3465,0.84167 z M 10.90106,3.77225 q 0,1.15101 -0.81063,1.96163 Q 9.27961,6.54474 8.12881,6.54474 6.9778,6.54474 6.16718,5.73388 5.35633,4.92326 5.35633,3.77225 5.35633,2.62146 6.16718,1.81062 6.9778,1 8.12881,1 q 1.1508,0 1.96162,0.81062 0.81063,0.81084 0.81063,1.96163 z"
     id="path10820"
     style="fill:white;" />
</svg>
