<?xml version="1.0" encoding="UTF-8" standalone="no"?>
<svg
   xmlns:dc="http://purl.org/dc/elements/1.1/"
   xmlns:cc="http://creativecommons.org/ns#"
   xmlns:rdf="http://www.w3.org/1999/02/22-rdf-syntax-ns#"
   xmlns:svg="http://www.w3.org/2000/svg"
   xmlns="http://www.w3.org/2000/svg"
   xmlns:sodipodi="http://sodipodi.sourceforge.net/DTD/sodipodi-0.dtd"
   xmlns:inkscape="http://www.inkscape.org/namespaces/inkscape"
   width="25"
   height="25"
   id="svg3354"
   version="1.1"
   inkscape:version="0.91 r13725"
   sodipodi:docname="activity-negotiating.svg">
  <metadata
     id="metadata3361">
    <rdf:RDF>
      <cc:Work
         rdf:about="">
        <dc:format>image/svg+xml</dc:format>
        <dc:type
           rdf:resource="http://purl.org/dc/dcmitype/StillImage" />
        <dc:title></dc:title>
      </cc:Work>
    </rdf:RDF>
  </metadata>
  <defs
     id="defs3359" />
  <sodipodi:namedview
     pagecolor="#ffffff"
     bordercolor="#666666"
     borderopacity="1"
     objecttolerance="10"
     gridtolerance="10"
     guidetolerance="10"
     inkscape:pageopacity="0"
     inkscape:pageshadow="2"
     inkscape:window-width="1920"
     inkscape:window-height="1137"
     id="namedview3357"
     showgrid="false"
     fit-margin-top="1"
     fit-margin-right="1"
     fit-margin-bottom="1"
     fit-margin-left="1"
     inkscape:zoom="1.5733333"
     inkscape:cx="-10.546403"
     inkscape:cy="-58.284344"
     inkscape:window-x="1912"
     inkscape:window-y="-8"
     inkscape:window-maximized="1"
     inkscape:current-layer="svg3354" />
  <path
     id="icon-negotiating"
     d="m 14.641447,6.0708468 q 1.7076,0 3.192,0.58035 1.4844,0.58034 2.3605,1.5736 0.87611,0.9933 0.87611,2.1317002 0,0.91519 -0.59152,1.7634 -0.59151,0.84822 -1.6629,1.4732 l -1.0826,0.62499 0.39062,0.93751 q -0.378,-0.223 -0.69,-0.435 l -0.49107,-0.34598 -0.59152,0.11149 q -0.87053,0.1563 -1.7076,0.1563 -1.7076,0 -3.192,-0.58038 -1.4839,-0.5802 -2.36,-1.5735 -0.8761,-0.9933 -0.8761,-2.1317 0,-1.1384002 0.87611,-2.1317002 0.8761,-0.9933 2.3605,-1.5736 1.4845,-0.5804 3.1915,-0.5804 z m 0,-1.4286 q -2.131,0 -3.9448,0.76449 -1.8136,0.76451 -2.8627,2.0815 -1.0491,1.3169 -1.0491,2.8683002 0,1.5513 1.0491,2.8683 1.0491,1.317 2.8627,2.0815 1.8136,0.76451 3.9453,0.76451 0.95982,0 1.9643,-0.17857 1.3839,0.98215 3.1027,1.4286 0.40179,0.1004 0.95983,0.17858 l 0.0335,0 q 0.12276,0 0.22879,-0.08919 0.10606,-0.08919 0.12836,-0.23438 0.01179,-0.03351 0.01179,-0.07268 0,-0.03905 -0.0059,-0.07268 -0.0059,-0.0335 -0.0223,-0.06689 l -0.02796,-0.0558 q 0,0 -0.03905,-0.06134 -0.03905,-0.06135 -0.04459,-0.05581 -0.0059,0.0047 -0.05026,-0.0558 -0.04459,-0.06134 -0.04459,-0.05014 -0.0558,-0.06689 -0.2567,-0.27903 -0.20089,-0.21202 -0.29017,-0.32921 -0.08931,-0.11727 -0.25111,-0.32365 -0.16184,-0.20649 -0.27902,-0.42969 -0.11715,-0.22321 -0.2288,-0.49107 1.385,-0.8038 2.178,-1.9757 0.792,-1.1719 0.792,-2.5 0,-1.5513002 -1.049,-2.8683002 -1.049,-1.3169 -2.863,-2.0815 -1.813,-0.7645 -3.945,-0.7645 z m -9.1736,13.0470002 q -0.1116,0.268 -0.2288,0.491 -0.1171,0.223 -0.279,0.43 -0.16183,0.20645 -0.25111,0.32365 -0.089307,0.11727 -0.29018,0.32924 -0.2009,0.21206 -0.2567,0.27902 -0.010618,0.01215 -0.044594,0.05014 -0.033505,0.03905 -0.050257,0.0558 -0.016752,0.01722 -0.044594,0.0558 -0.02796,0.03905 -0.039049,0.06134 l -0.02796,0.05581 q 0,0 -0.022297,0.06689 -0.022297,0.06689 -0.0059,0.07268 0.016752,0.0047 0.011797,0.07244 0.033505,0.15632 0.14508,0.24552 0.1116,0.08919 0.24554,0.0781 0.55803,-0.0781 0.95982,-0.17855 1.7188,-0.44644 3.1027,-1.4286 1.0045,0.17857 1.9643,0.17857 3.0245,0 5.2678,-1.4732 -0.64732,0.04459 -0.98215,0.04459 -1.7969,0 -3.4486,-0.50222 -1.652,-0.504 -2.9466,-1.441 -1.3951,-1.0269 -2.1429,-2.3662 -0.7478,-1.3392 -0.7478,-2.8348 0,-0.8593802 0.25669,-1.6964002 -1.4397,0.7924 -2.2768,1.9866002 -0.83705,1.1942 -0.83705,2.567 0,1.3393 0.79241,2.5058 0.79239,1.166 2.1764,1.97 z"
     horiz-adv-x="1792"
     unicode=""
     inkscape:connector-curvature="0"
     style="fill:#444444" />
</svg>
