<?xml version="1.0" encoding="UTF-8" standalone="no"?>
<svg
   xmlns:dc="http://purl.org/dc/elements/1.1/"
   xmlns:cc="http://creativecommons.org/ns#"
   xmlns:rdf="http://www.w3.org/1999/02/22-rdf-syntax-ns#"
   xmlns:svg="http://www.w3.org/2000/svg"
   xmlns="http://www.w3.org/2000/svg"
   xmlns:sodipodi="http://sodipodi.sourceforge.net/DTD/sodipodi-0.dtd"
   xmlns:inkscape="http://www.inkscape.org/namespaces/inkscape"
   width="25"
   height="25"
   id="svg3336"
   version="1.1"
   inkscape:version="0.91 r13725"
   sodipodi:docname="activity-visited.svg">
  <metadata
     id="metadata3343">
    <rdf:RDF>
      <cc:Work
         rdf:about="">
        <dc:format>image/svg+xml</dc:format>
        <dc:type
           rdf:resource="http://purl.org/dc/dcmitype/StillImage" />
        <dc:title></dc:title>
      </cc:Work>
    </rdf:RDF>
  </metadata>
  <defs
     id="defs3341" />
  <sodipodi:namedview
     pagecolor="#ffffff"
     bordercolor="#666666"
     borderopacity="1"
     objecttolerance="10"
     gridtolerance="10"
     guidetolerance="10"
     inkscape:pageopacity="0"
     inkscape:pageshadow="2"
     inkscape:window-width="1920"
     inkscape:window-height="1137"
     id="namedview3339"
     showgrid="false"
     fit-margin-top="1"
     fit-margin-right="1"
     fit-margin-bottom="1"
     fit-margin-left="1"
     inkscape:zoom="3.2533333"
     inkscape:cx="-49.262453"
     inkscape:cy="-17.064398"
     inkscape:window-x="1912"
     inkscape:window-y="-8"
     inkscape:window-maximized="1"
     inkscape:current-layer="svg3336" />
  <path
     id="icon-visited"
     d="m 2.5,12.932156 0,3.429151 c 0,0.154724 0.056557,0.288788 0.1696834,0.401838 0.113099,0.113179 0.2470556,0.169688 0.4018523,0.169688 l 0.571523,0 0,3.429135 c 0,0.154725 0.056557,0.288788 0.1696834,0.40184 0.113099,0.11318 0.2470556,0.169688 0.4018523,0.169688 l 2.2860967,0 c 0.1547888,0 0.2887453,-0.05651 0.4018555,-0.169688 0.1131148,-0.113179 0.1696818,-0.247051 0.1696818,-0.40184 l 0,-3.429135 0.5715261,0 c 0.1547888,0 0.2887231,-0.05651 0.4018428,-0.169688 0.1131149,-0.113178 0.1696834,-0.247066 0.1696834,-0.401838 l 0,-3.429151 c 0,-0.31553 -0.1116345,-0.584931 -0.3348796,-0.808184 C 7.6571656,11.900847 7.3877689,11.789101 7.072238,11.789101 l -3.4291475,0 c -0.3155293,0 -0.5849197,0.111746 -0.8081728,0.334871 -0.2232594,0.223349 -0.3348763,0.492654 -0.3348763,0.808184 z M 3.3572868,9.5030055 c 0,0.5536515 0.1949791,1.0254665 0.5849214,1.4154165 0.389947,0.389933 0.8617519,0.584915 1.4154162,0.584915 0.5536643,0 1.0254708,-0.194951 1.4154163,-0.584915 0.3899454,-0.389949 0.5849197,-0.861765 0.5849197,-1.4154165 0,-0.553668 -0.194979,-1.025484 -0.5849197,-1.415416 -0.3899455,-0.389933 -0.861752,-0.584915 -1.4154163,-0.584915 -0.5536643,0 -1.0254692,0.19495 -1.4154162,0.584915 -0.389947,0.389932 -0.5849214,0.861748 -0.5849214,1.415416 z m 15.5283602,6.9125345 0,0.602409 q 0,0.122412 0.08941,0.21176 0.08943,0.08946 0.211777,0.08946 l 0.602397,0 q 0.122347,0 0.211777,-0.08946 0.08941,-0.08946 0.08941,-0.21176 l 0,-0.602409 q 0,-0.122411 -0.08941,-0.211761 -0.08943,-0.08946 -0.211777,-0.08946 l -0.602397,0 q -0.122364,0 -0.211777,0.08946 -0.08941,0.08946 -0.08941,0.211761 z m 0,-2.409557 0,0.602393 q 0,0.122412 0.08941,0.211776 0.08943,0.08946 0.211777,0.08946 l 0.602397,0 q 0.122347,0 0.211777,-0.08946 0.08941,-0.08946 0.08941,-0.211776 l 0,-0.602393 q 0,-0.122411 -0.08941,-0.211776 -0.08943,-0.08946 -0.211777,-0.08946 l -0.602397,0 q -0.122364,0 -0.211777,0.08946 -0.08941,0.08946 -0.08941,0.211776 z m -2.409567,0 0,0.602393 q 0,0.122412 0.08941,0.211776 0.08941,0.08946 0.211779,0.08946 l 0.60239,0 q 0.122363,0 0.211779,-0.08946 0.08941,-0.08946 0.08941,-0.211776 l 0,-0.602393 q 0,-0.122411 -0.08941,-0.211776 -0.08941,-0.08946 -0.211779,-0.08946 l -0.60239,0 q -0.122363,0 -0.211779,0.08946 -0.08941,0.08946 -0.08941,0.211776 z m 2.409567,-2.409572 0,0.602393 q 0,0.122411 0.08941,0.211776 0.08943,0.08946 0.211777,0.08946 l 0.602397,0 q 0.122347,0 0.211777,-0.08946 0.08941,-0.08946 0.08941,-0.211776 l 0,-0.602393 q 0,-0.122411 -0.08941,-0.211776 -0.08943,-0.08946 -0.211777,-0.08946 l -0.602397,0 q -0.122364,0 -0.211777,0.08946 -0.08941,0.08946 -0.08941,0.211776 z m -7.228706,4.819129 0,0.602409 q 0,0.122412 0.08941,0.21176 0.08941,0.08946 0.21178,0.08946 l 0.602393,0 q 0.122364,0 0.211779,-0.08946 0.08941,-0.08946 0.08941,-0.21176 l 0,-0.602409 q 0,-0.122411 -0.08941,-0.211761 -0.08941,-0.08946 -0.211779,-0.08946 l -0.602393,0 q -0.122363,0 -0.21178,0.08946 -0.08941,0.08946 -0.08941,0.211761 z m 2.409567,-2.409557 0,0.602393 q 0,0.122412 0.08941,0.211776 0.08943,0.08946 0.211777,0.08946 l 0.602397,0 q 0.122363,0 0.211777,-0.08946 0.08941,-0.08946 0.08941,-0.211776 l 0,-0.602393 q 0,-0.122411 -0.08941,-0.211776 -0.08941,-0.08946 -0.211777,-0.08946 l -0.602397,0 q -0.122363,0 -0.211777,0.08946 -0.08941,0.08946 -0.08941,0.211776 z m 2.409572,-2.409572 0,0.602393 q 0,0.122411 0.08941,0.211776 0.08941,0.08946 0.211779,0.08946 l 0.60239,0 q 0.122363,0 0.211779,-0.08946 0.08941,-0.08946 0.08941,-0.211776 l 0,-0.602393 q 0,-0.122411 -0.08941,-0.211776 -0.08941,-0.08946 -0.211779,-0.08946 l -0.60239,0 q -0.122363,0 -0.211779,0.08946 -0.08941,0.08946 -0.08941,0.211776 z m 2.409567,-2.4095575 0,0.602377 q 0,0.122411 0.08941,0.2117925 0.08943,0.08946 0.211777,0.08946 l 0.602397,0 q 0.122347,0 0.211777,-0.08946 0.08941,-0.08946 0.08941,-0.2117925 l 0,-0.602377 q 0,-0.122411 -0.08941,-0.211792 -0.08943,-0.08946 -0.211777,-0.08946 l -0.602397,0 q -0.122364,0 -0.211777,0.08946 -0.08941,0.08946 -0.08941,0.211792 z m -7.228706,4.8191295 0,0.602393 q 0,0.122412 0.08941,0.211776 0.08941,0.08946 0.21178,0.08946 l 0.602393,0 q 0.122364,0 0.211779,-0.08946 0.08941,-0.08946 0.08941,-0.211776 l 0,-0.602393 q 0,-0.122411 -0.08941,-0.211776 -0.08941,-0.08946 -0.211779,-0.08946 l -0.602393,0 q -0.122363,0 -0.21178,0.08946 -0.08941,0.08946 -0.08941,0.211776 z m 2.409567,-2.409572 0,0.602393 q 0,0.122411 0.08941,0.211776 0.08943,0.08946 0.211777,0.08946 l 0.602397,0 q 0.122363,0 0.211777,-0.08946 0.08941,-0.08946 0.08941,-0.211776 l 0,-0.602393 q 0,-0.122411 -0.08941,-0.211776 -0.08941,-0.08946 -0.211777,-0.08946 l -0.602397,0 q -0.122363,0 -0.211777,0.08946 -0.08941,0.08946 -0.08941,0.211776 z m 2.409572,-2.4095575 0,0.602377 q 0,0.122411 0.08941,0.2117925 0.08941,0.08946 0.211779,0.08946 l 0.60239,0 q 0.122363,0 0.211779,-0.08946 0.08941,-0.08946 0.08941,-0.2117925 l 0,-0.602377 q 0,-0.122411 -0.08941,-0.211792 -0.08941,-0.08946 -0.211779,-0.08946 l -0.60239,0 q -0.122363,0 -0.211779,0.08946 -0.08941,0.08946 -0.08941,0.211792 z m 2.409567,-2.4095727 0,0.6023927 q 0,0.122412 0.08941,0.211776 0.08943,0.08946 0.211777,0.08946 l 0.602397,0 q 0.122347,0 0.211777,-0.08946 0.08941,-0.08946 0.08941,-0.211776 l 0,-0.6023927 q 0,-0.1224112 -0.08941,-0.211792 -0.08943,-0.08946 -0.211777,-0.08946 l -0.602397,0 q -0.122364,0 -0.211777,0.08946 -0.08941,0.089461 -0.08941,0.211792 z m -7.228706,4.8191302 0,0.602393 q 0,0.122411 0.08941,0.211776 0.08941,0.08946 0.21178,0.08946 l 0.602393,0 q 0.122364,0 0.211779,-0.08946 0.08941,-0.08946 0.08941,-0.211776 l 0,-0.602393 q 0,-0.122411 -0.08941,-0.211776 -0.08941,-0.08946 -0.211779,-0.08946 l -0.602393,0 q -0.122363,0 -0.21178,0.08946 -0.08941,0.08946 -0.08941,0.211776 z m 2.409567,-2.4095575 0,0.602377 q 0,0.122411 0.08941,0.2117925 0.08943,0.08946 0.211777,0.08946 l 0.602397,0 q 0.122363,0 0.211777,-0.08946 0.08941,-0.08946 0.08941,-0.2117925 l 0,-0.602377 q 0,-0.122411 -0.08941,-0.211792 -0.08941,-0.08946 -0.211777,-0.08946 l -0.602397,0 q -0.122363,0 -0.211777,0.08946 -0.08941,0.08946 -0.08941,0.211792 z m 2.409572,-2.4095727 0,0.6023927 q 0,0.122412 0.08941,0.211776 0.08941,0.08946 0.211779,0.08946 l 0.60239,0 q 0.122363,0 0.211779,-0.08946 0.08941,-0.08946 0.08941,-0.211776 l 0,-0.6023927 q 0,-0.1224112 -0.08941,-0.211792 -0.08941,-0.08946 -0.211779,-0.08946 l -0.60239,0 q -0.122363,0 -0.211779,0.08946 -0.08941,0.089461 -0.08941,0.211792 z m -4.819139,2.4095727 0,0.602377 q 0,0.122411 0.08941,0.2117925 0.08941,0.08946 0.21178,0.08946 l 0.602393,0 q 0.122364,0 0.211779,-0.08946 0.08941,-0.08946 0.08941,-0.2117925 l 0,-0.602377 q 0,-0.122411 -0.08941,-0.211792 -0.08941,-0.08946 -0.211779,-0.08946 l -0.602393,0 q -0.122363,0 -0.21178,0.08946 -0.08941,0.08946 -0.08941,0.211792 z m 2.409567,-2.4095727 0,0.6023927 q 0,0.122412 0.08941,0.211776 0.08943,0.08946 0.211777,0.08946 l 0.602397,0 q 0.122363,0 0.211777,-0.08946 0.08941,-0.08946 0.08941,-0.211776 l 0,-0.6023927 q 0,-0.1224112 -0.08941,-0.211792 -0.08941,-0.08946 -0.211777,-0.08946 l -0.602397,0 q -0.122363,0 -0.211777,0.08946 -0.08941,0.089461 -0.08941,0.211792 z m -2.409567,0 0,0.6023927 q 0,0.122412 0.08941,0.211776 0.08941,0.08946 0.21178,0.08946 l 0.602393,0 q 0.122364,0 0.211779,-0.08946 0.08941,-0.08946 0.08941,-0.211776 l 0,-0.6023927 q 0,-0.1224112 -0.08941,-0.211792 -0.08941,-0.08946 -0.211779,-0.08946 l -0.602393,0 q -0.122363,0 -0.21178,0.08946 -0.08941,0.089461 -0.08941,0.211792 z m 2.409567,12.9514132 -3.614352,0 0,-14.4573882 10.843057,0 0,14.4573882 -3.614353,0 0,-2.108352 q 0,-0.12241 -0.08941,-0.211792 -0.08941,-0.08946 -0.21178,-0.08946 l -3.011962,0 q -0.122364,0 -0.211778,0.08946 -0.08941,0.08946 -0.08941,0.211792 l 0,2.108352 z M 9.2473714,4.6688966 l 0,15.6621904 q 0,0.244743 0.1788348,0.423567 0.1788365,0.178842 0.4235584,0.178842 l 12.0478454,0 q 0.244721,0 0.423556,-0.178842 Q 22.5,20.575831 22.5,20.331087 l 0,-15.6621904 Q 22.5,4.4241859 22.321166,4.2453447 22.142331,4.0665035 21.89761,4.0665035 l -12.0478454,0 q -0.2447219,0 -0.4235584,0.1788412 -0.1788348,0.1788412 -0.1788348,0.4235519 z"
     inkscape:connector-curvature="0"
     style="fill:#444444" />
</svg>
