<?xml version="1.0" encoding="UTF-8" standalone="no"?>
<!-- Created with Inkscape (http://www.inkscape.org/) -->

<svg
   xmlns:dc="http://purl.org/dc/elements/1.1/"
   xmlns:cc="http://creativecommons.org/ns#"
   xmlns:rdf="http://www.w3.org/1999/02/22-rdf-syntax-ns#"
   xmlns:svg="http://www.w3.org/2000/svg"
   xmlns="http://www.w3.org/2000/svg"
   xmlns:sodipodi="http://sodipodi.sourceforge.net/DTD/sodipodi-0.dtd"
   xmlns:inkscape="http://www.inkscape.org/namespaces/inkscape"
   version="1.1"
   width="50"
   height="50"
   id="svg11581"
   inkscape:version="0.91 r13725"
   sodipodi:docname="risk-wh.svg">
  <sodipodi:namedview
     pagecolor="#ffffff"
     bordercolor="#666666"
     borderopacity="1"
     objecttolerance="10"
     gridtolerance="10"
     guidetolerance="10"
     inkscape:pageopacity="0"
     inkscape:pageshadow="2"
     inkscape:window-width="1920"
     inkscape:window-height="1137"
     id="namedview6"
     showgrid="false"
     inkscape:zoom="6.9411765"
     inkscape:cx="-8.2838832"
     inkscape:cy="17"
     inkscape:window-x="1912"
     inkscape:window-y="-8"
     inkscape:window-maximized="1"
     inkscape:current-layer="svg11581" />
  <defs
     id="defs11583" />
  <metadata
     id="metadata11586">
    <rdf:RDF>
      <cc:Work
         rdf:about="">
        <dc:format>image/svg+xml</dc:format>
        <dc:type
           rdf:resource="http://purl.org/dc/dcmitype/StillImage" />
        <dc:title></dc:title>
      </cc:Work>
    </rdf:RDF>
  </metadata>
  <path
     d="m 27.318389,18.62425 0,8.114732 q 0,0.253737 -0.162777,0.416574 -0.163289,0.163281 -0.4166,0.163281 l -5.796313,0 q -0.253746,0 -0.416557,-0.163281 -0.163298,-0.162776 -0.163298,-0.416574 l 0,-1.159214 q 0,-0.253746 0.163298,-0.416592 0.162759,-0.163289 0.416557,-0.163289 l 4.057357,0 0,-6.375759 q 0,-0.253746 0.162768,-0.416565 0.163289,-0.163299 0.416566,-0.163299 l 1.159526,0 q 0.253485,0 0.416592,0.163299 0.162776,0.162758 0.162776,0.416565 z m 7.535268,6.375767 q 0,-2.680575 -1.322364,-4.944923 -1.32239,-2.26401 -3.5864,-3.586374 -2.264314,-1.32239 -4.944923,-1.32239 -2.68088,0 -4.94489,1.32239 -2.26434,1.322364 -3.586399,3.586374 -1.322364,2.264348 -1.322364,4.944923 0,2.680889 1.322364,4.94489 1.322059,2.264348 3.586399,3.586373 2.26401,1.32239 4.94489,1.32239 2.680609,0 4.944923,-1.32239 2.26401,-1.322025 3.5864,-3.586373 1.322364,-2.264001 1.322364,-4.94489 z m 4.057375,0 q 0,3.78571 -1.865676,6.982697 -1.865651,3.197005 -5.062655,5.062655 -3.197013,1.86565 -6.982731,1.86565 -3.785684,0 -6.982697,-1.86565 -3.196987,-1.86565 -5.062655,-5.062655 -1.86565,-3.196987 -1.86565,-6.982697 0,-3.785718 1.86565,-6.982731 1.865668,-3.196987 5.062655,-5.062655 3.197013,-1.86565 6.982697,-1.86565 3.785718,0 6.982731,1.86565 3.197004,1.865668 5.062655,5.062655 1.865676,3.197013 1.865676,6.982731 z"
     id="path10080"
     style="fill:#212121"
     inkscape:connector-curvature="0" />
</svg>

